  0
SECTION
  2
ENTITIES
  0
LINE
  8
0
 10
0.0
 20
0.0
 11
100.0
 21
0.0
  0
LINE
  8
0
 10
100.0
 20
0.0
 11
100.0
 21
80.0
  0
LINE
  8
0
 10
100.0
 20
80.0
 11
0.0
 21
80.0
  0
LINE
  8
0
 10
0.0
 20
80.0
 11
0.0
 21
0.0
  0
CIRCLE
  8
0
 10
50.0
 20
40.0
 40
30.0
  0
ARC
  8
0
 10
50.0
 20
40.0
 40
15.0
 50
0.0
 51
180.0
  0
LWPOLYLINE
  8
0
 90
4
 70
1
 10
20.0
 20
20.0
 10
30.0
 20
10.0
 10
40.0
 20
20.0
 10
20.0
 20
20.0
  0
TEXT
  8
0
 10
10.0
 20
90.0
 40
5.0
  1
Test Text
  0
ENDSEC
  0
EOF
